# xmcd CD database file
#
# Track frame offsets:
#	150
#	17597
#	43751
#	71903
#	90521
#	105911
#	125860
#	163653
#	186050
#	213461
#
# Disc length: 4090 seconds
#
# Revision: 0
# Processed by: cddbd v1.5.2PL0 Copyright (c) Steve Scherf et al.
# Submitted via: CDex 1.70beta2
#
DISCID=870ff80a
DTITLE=Onesco,Bogert,Ceo Project - Big Electric Cream Jam
DYEAR=2009
DGENRE=Blues
TTITLE0=Crossroads
TTITLE1=Politician
TTITLE2=Sitting on Top of the World
TTITLE3=Outside Woman Blues
TTITLE4=Tales of Brave Ulysses
TTITLE5=I'm so Glad
TTITLE6=Spoonfull
TTITLE7=Toad
TTITLE8=We're Going Wrong
TTITLE9=Sunshine of your Love
EXTD=YEAR: 2009
EXTT0=
EXTT1=
EXTT2=
EXTT3=
EXTT4=
EXTT5=
EXTT6=
EXTT7=
EXTT8=
EXTT9=
PLAYORDER=
